<?xml version="1.0" encoding="UTF-8"?>
<svg xmlns="http://www.w3.org/2000/svg" xmlns:xlink="http://www.w3.org/1999/xlink" width="30px" height="30px" viewBox="0 0 30 30" version="1.1">
<defs>
<linearGradient id="linear0" gradientUnits="userSpaceOnUse" x1="82.576" y1="97.3284" x2="114.9192" y2="97.3284" gradientTransform="matrix(-0.234375,0,0,0.234375,30.108586,0)">
<stop offset="0" style="stop-color:rgb(100%,42.745098%,0%);stop-opacity:1;"/>
<stop offset="0.2487" style="stop-color:rgb(100%,60.784314%,0%);stop-opacity:1;"/>
<stop offset="0.5135" style="stop-color:rgb(100%,77.647059%,0%);stop-opacity:1;"/>
<stop offset="0.721" style="stop-color:rgb(100%,87.843137%,0%);stop-opacity:1;"/>
<stop offset="0.8439" style="stop-color:rgb(100%,91.764706%,0%);stop-opacity:1;"/>
</linearGradient>
<filter id="alpha" filterUnits="objectBoundingBox" x="0%" y="0%" width="100%" height="100%">
  <feColorMatrix type="matrix" in="SourceGraphic" values="0 0 0 0 1 0 0 0 0 1 0 0 0 0 1 0 0 0 1 0"/>
</filter>
<mask id="mask0">
  <g filter="url(#alpha)">
<rect x="0" y="0" width="30" height="30" style="fill:rgb(0%,0%,0%);fill-opacity:0.2;stroke:none;"/>
  </g>
</mask>
<clipPath id="clip1">
  <rect x="0" y="0" width="30" height="30"/>
</clipPath>
<g id="surface5" clip-path="url(#clip1)">
<path style=" stroke:none;fill-rule:nonzero;fill:rgb(25.882353%,25.882353%,25.882353%);fill-opacity:1;" d="M 9.269531 19.492188 C 9.605469 19.492188 9.859375 19.578125 10.03125 19.746094 C 10.675781 20.390625 10.105469 22.398438 8.253906 24.25 C 6.917969 25.585938 4.695312 25.980469 3.6875 26.09375 C 3.800781 25.085938 4.191406 22.859375 5.527344 21.523438 C 6.761719 20.289062 8.230469 19.492188 9.269531 19.492188 M 9.269531 19.023438 C 8.140625 19.023438 6.566406 19.820312 5.195312 21.191406 C 3.277344 23.109375 3.175781 26.605469 3.175781 26.605469 C 3.175781 26.605469 6.667969 26.5 8.585938 24.582031 C 10.507812 22.667969 11.300781 20.351562 10.363281 19.417969 C 10.097656 19.144531 9.71875 19.023438 9.269531 19.023438 Z M 9.269531 19.023438 "/>
</g>
<linearGradient id="linear1" gradientUnits="userSpaceOnUse" x1="93.5449" y1="91.9564" x2="110.2949" y2="109.2064" gradientTransform="matrix(-0.234375,0,0,0.234375,30.108586,0)">
<stop offset="0.00444748" style="stop-color:rgb(77.647059%,15.686275%,15.686275%);stop-opacity:1;"/>
<stop offset="0.2711" style="stop-color:rgb(84.313725%,32.54902%,15.294118%);stop-opacity:1;"/>
<stop offset="0.5983" style="stop-color:rgb(91.372549%,50.588235%,14.901961%);stop-opacity:1;"/>
<stop offset="0.8504" style="stop-color:rgb(96.078431%,61.568627%,14.509804%);stop-opacity:1;"/>
<stop offset="0.9953" style="stop-color:rgb(97.647059%,65.882353%,14.509804%);stop-opacity:1;"/>
</linearGradient>
<mask id="mask1">
  <g filter="url(#alpha)">
<rect x="0" y="0" width="30" height="30" style="fill:rgb(0%,0%,0%);fill-opacity:0.2;stroke:none;"/>
  </g>
</mask>
<clipPath id="clip2">
  <rect x="0" y="0" width="30" height="30"/>
</clipPath>
<g id="surface8" clip-path="url(#clip2)">
<path style=" stroke:none;fill-rule:nonzero;fill:rgb(25.882353%,25.882353%,25.882353%);fill-opacity:1;" d="M 17.371094 18.511719 C 17.414062 18.628906 17.457031 18.757812 17.5 18.90625 C 17.65625 19.484375 17.792969 20.410156 17.511719 21.511719 C 17.160156 22.925781 16.628906 23.527344 16.007812 24.058594 C 15.929688 23.164062 15.753906 21.945312 14.855469 21.050781 C 14.527344 20.722656 14.144531 20.472656 13.765625 20.289062 L 17.371094 18.511719 M 17.699219 17.570312 L 11.851562 20.453125 C 11.851562 20.453125 13.40625 20.59375 14.359375 21.546875 C 15.339844 22.527344 15.265625 24.089844 15.378906 24.871094 C 15.402344 25.035156 15.523438 25.121094 15.664062 25.121094 C 15.765625 25.121094 15.871094 25.082031 15.964844 25.003906 C 16.824219 24.300781 17.6875 23.6875 18.191406 21.6875 C 18.804688 19.265625 17.699219 17.570312 17.699219 17.570312 Z M 17.699219 17.570312 "/>
</g>
<mask id="mask2">
  <g filter="url(#alpha)">
<rect x="0" y="0" width="30" height="30" style="fill:rgb(0%,0%,0%);fill-opacity:0.2;stroke:none;"/>
  </g>
</mask>
<clipPath id="clip3">
  <rect x="0" y="0" width="30" height="30"/>
</clipPath>
<g id="surface11" clip-path="url(#clip3)">
<path style=" stroke:none;fill-rule:nonzero;fill:rgb(25.882353%,25.882353%,25.882353%);fill-opacity:1;" d="M 10.296875 12.496094 C 10.691406 12.496094 11.027344 12.535156 11.292969 12.589844 L 9.535156 16.316406 C 9.347656 15.980469 9.109375 15.636719 8.796875 15.324219 C 7.964844 14.492188 6.859375 14.285156 5.984375 14.195312 C 6.742188 13.621094 7.773438 12.957031 8.785156 12.695312 C 9.289062 12.558594 9.800781 12.496094 10.296875 12.496094 M 10.296875 11.792969 C 9.804688 11.792969 9.234375 11.851562 8.609375 12.011719 C 7.109375 12.402344 5.625 13.542969 4.847656 14.214844 C 4.617188 14.410156 4.699219 14.761719 4.980469 14.804688 C 5.757812 14.914062 7.320312 14.839844 8.300781 15.820312 C 9.257812 16.777344 9.457031 18.132812 9.457031 18.132812 L 12.28125 12.148438 C 12.28125 12.148438 11.523438 11.792969 10.296875 11.792969 Z M 10.296875 11.792969 "/>
</g>
<mask id="mask3">
  <g filter="url(#alpha)">
<rect x="0" y="0" width="30" height="30" style="fill:rgb(0%,0%,0%);fill-opacity:0.2;stroke:none;"/>
  </g>
</mask>
<clipPath id="clip4">
  <rect x="0" y="0" width="30" height="30"/>
</clipPath>
<g id="surface14" clip-path="url(#clip4)">
<path style=" stroke:none;fill-rule:nonzero;fill:rgb(25.882353%,25.882353%,25.882353%);fill-opacity:1;" d="M 8.96875 18.6875 L 11.292969 21.011719 L 10.5625 22.203125 C 10.539062 22.207031 10.511719 22.207031 10.484375 22.207031 C 10.257812 22.207031 9.464844 22.148438 8.765625 21.402344 C 7.882812 20.457031 7.742188 19.71875 7.753906 19.433594 L 8.96875 18.6875 M 9.019531 17.867188 C 8.980469 17.867188 8.9375 17.878906 8.902344 17.898438 L 7.199219 18.945312 C 6.996094 19.070312 6.769531 20.300781 8.25 21.882812 C 9.003906 22.6875 9.910156 22.910156 10.480469 22.910156 C 10.78125 22.910156 10.988281 22.847656 11.03125 22.777344 L 12.078125 21.074219 C 12.144531 20.96875 12.085938 20.804688 12.039062 20.761719 L 9.207031 17.933594 C 9.179688 17.902344 9.101562 17.867188 9.019531 17.867188 Z M 9.019531 17.867188 "/>
</g>
<radialGradient id="radial0" gradientUnits="userSpaceOnUse" cx="46.5" cy="32.5" fx="46.5" fy="32.5" r="36.4726" gradientTransform="matrix(-0.234375,0,0,0.234375,30.108586,0)">
<stop offset="0.0112" style="stop-color:rgb(96.078431%,96.078431%,96.078431%);stop-opacity:1;"/>
<stop offset="0.9995" style="stop-color:rgb(74.117647%,74.117647%,74.117647%);stop-opacity:1;"/>
</radialGradient>
<mask id="mask4">
  <g filter="url(#alpha)">
<rect x="0" y="0" width="30" height="30" style="fill:rgb(0%,0%,0%);fill-opacity:0.2;stroke:none;"/>
  </g>
</mask>
<clipPath id="clip5">
  <rect x="0" y="0" width="30" height="30"/>
</clipPath>
<g id="surface17" clip-path="url(#clip5)">
<path style=" stroke:none;fill-rule:nonzero;fill:rgb(25.882353%,25.882353%,25.882353%);fill-opacity:1;" d="M 18.46875 9.441406 C 18.898438 9.441406 19.308594 9.609375 19.613281 9.914062 C 19.917969 10.21875 20.085938 10.625 20.085938 11.058594 C 20.085938 11.488281 19.917969 11.898438 19.613281 12.203125 C 19.308594 12.507812 18.898438 12.675781 18.46875 12.675781 C 18.039062 12.675781 17.628906 12.507812 17.324219 12.203125 C 16.695312 11.570312 16.695312 10.542969 17.324219 9.914062 C 17.628906 9.609375 18.035156 9.441406 18.46875 9.441406 M 18.46875 8.972656 C 17.933594 8.972656 17.398438 9.175781 16.992188 9.582031 C 16.175781 10.398438 16.175781 11.71875 16.992188 12.535156 C 17.398438 12.941406 17.933594 13.144531 18.46875 13.144531 C 19.003906 13.144531 19.539062 12.941406 19.945312 12.535156 C 20.761719 11.71875 20.761719 10.398438 19.945312 9.582031 C 19.539062 9.175781 19.003906 8.972656 18.46875 8.972656 Z M 18.46875 8.972656 "/>
</g>
<mask id="mask5">
  <g filter="url(#alpha)">
<rect x="0" y="0" width="30" height="30" style="fill:rgb(0%,0%,0%);fill-opacity:0.2;stroke:none;"/>
  </g>
</mask>
<clipPath id="clip6">
  <rect x="0" y="0" width="30" height="30"/>
</clipPath>
<g id="surface20" clip-path="url(#clip6)">
<path style=" stroke:none;fill-rule:nonzero;fill:rgb(25.882353%,25.882353%,25.882353%);fill-opacity:1;" d="M 25.953125 3.738281 C 26.09375 3.738281 26.164062 3.753906 26.191406 3.765625 C 26.210938 3.804688 26.257812 3.96875 26.21875 4.417969 C 26.007812 6.726562 25.707031 8.039062 24.933594 10.039062 C 24.335938 11.597656 23.203125 13.40625 22.175781 14.433594 C 18.585938 18.023438 14.816406 20.253906 12.335938 20.253906 C 11.667969 20.253906 11.101562 20.09375 10.652344 19.773438 L 10.574219 19.71875 C 10.457031 19.636719 10.355469 19.566406 10.269531 19.492188 C 9.890625 19.148438 9.6875 18.625 9.671875 17.9375 C 9.605469 15.429688 11.945312 11.289062 15.359375 7.871094 C 16.433594 6.800781 18.320312 5.617188 19.953125 4.992188 C 19.957031 4.988281 19.960938 4.988281 19.964844 4.984375 C 21.625 4.308594 22.777344 4.09375 25.632812 3.757812 C 25.753906 3.746094 25.863281 3.738281 25.953125 3.738281 M 25.953125 3.035156 C 25.832031 3.035156 25.703125 3.042969 25.554688 3.0625 C 22.589844 3.40625 21.417969 3.632812 19.703125 4.332031 C 18.035156 4.972656 16.054688 6.183594 14.867188 7.375 C 10.132812 12.109375 7.527344 17.964844 9.800781 20.011719 C 9.9375 20.132812 10.089844 20.234375 10.246094 20.347656 C 10.832031 20.761719 11.539062 20.957031 12.335938 20.957031 C 15.144531 20.957031 19.054688 18.546875 22.671875 14.933594 C 23.808594 13.796875 24.972656 11.910156 25.589844 10.292969 C 26.378906 8.25 26.703125 6.863281 26.917969 4.480469 C 27.007812 3.433594 26.757812 3.035156 25.953125 3.035156 Z M 25.953125 3.035156 "/>
</g>
<mask id="mask6">
  <g filter="url(#alpha)">
<rect x="0" y="0" width="30" height="30" style="fill:rgb(0%,0%,0%);fill-opacity:0.2;stroke:none;"/>
  </g>
</mask>
<clipPath id="clip7">
  <rect x="0" y="0" width="30" height="30"/>
</clipPath>
<g id="surface23" clip-path="url(#clip7)">
<path style=" stroke:none;fill-rule:nonzero;fill:rgb(25.882353%,25.882353%,25.882353%);fill-opacity:1;" d="M 14.164062 14.585938 C 14.445312 14.585938 14.703125 14.691406 14.902344 14.890625 C 15.097656 15.085938 15.207031 15.347656 15.207031 15.625 C 15.207031 15.90625 15.097656 16.164062 14.902344 16.363281 C 14.703125 16.558594 14.445312 16.667969 14.164062 16.667969 C 13.886719 16.667969 13.625 16.558594 13.429688 16.363281 C 13.234375 16.164062 13.125 15.90625 13.125 15.625 C 13.125 15.347656 13.234375 15.085938 13.429688 14.890625 C 13.628906 14.691406 13.890625 14.585938 14.164062 14.585938 M 14.164062 14.117188 C 13.777344 14.117188 13.394531 14.265625 13.097656 14.558594 C 12.511719 15.148438 12.511719 16.105469 13.097656 16.691406 C 13.394531 16.988281 13.777344 17.136719 14.164062 17.136719 C 14.550781 17.136719 14.9375 16.988281 15.230469 16.691406 C 15.820312 16.105469 15.820312 15.148438 15.230469 14.558594 C 14.9375 14.265625 14.550781 14.117188 14.164062 14.117188 Z M 14.164062 14.117188 "/>
</g>
</defs>
<g id="surface1">
<path style=" stroke:none;fill-rule:nonzero;fill:url(#linear0);" d="M 5.195312 21.191406 C 3.277344 23.105469 3.175781 26.601562 3.175781 26.601562 C 3.175781 26.601562 6.667969 26.5 8.585938 24.582031 C 10.507812 22.664062 11.300781 20.351562 10.363281 19.414062 C 9.425781 18.476562 7.113281 19.273438 5.195312 21.191406 Z M 5.195312 21.191406 "/>
<use xlink:href="#surface5" mask="url(#mask0)"/>
<path style=" stroke:none;fill-rule:nonzero;fill:url(#linear1);" d="M 5.777344 21.863281 C 4.570312 23.070312 4.503906 25.269531 4.503906 25.269531 C 4.503906 25.269531 6.703125 25.203125 7.910156 23.996094 C 9.117188 22.789062 9.617188 21.332031 9.027344 20.746094 C 8.4375 20.15625 6.988281 20.65625 5.777344 21.863281 Z M 5.777344 21.863281 "/>
<path style=" stroke:none;fill-rule:nonzero;fill:rgb(32.941176%,43.137255%,47.843137%);fill-opacity:1;" d="M 8.253906 21.886719 C 9.402344 23.113281 10.90625 22.984375 11.03125 22.78125 L 12.082031 21.074219 C 12.144531 20.972656 12.085938 20.808594 12.042969 20.765625 L 9.207031 17.933594 C 9.164062 17.886719 9.007812 17.835938 8.902344 17.898438 L 7.199219 18.949219 C 7 19.074219 6.773438 20.304688 8.253906 21.886719 Z M 8.253906 21.886719 "/>
<path style=" stroke:none;fill-rule:nonzero;fill:rgb(0.784314%,53.333333%,81.960784%);fill-opacity:1;" d="M 15.96875 25.003906 C 15.734375 25.191406 15.417969 25.152344 15.378906 24.871094 C 15.269531 24.089844 15.34375 22.527344 14.363281 21.546875 C 13.40625 20.59375 11.851562 20.453125 11.851562 20.453125 L 17.703125 17.570312 C 17.703125 17.570312 18.804688 19.269531 18.195312 21.6875 C 17.691406 23.6875 16.824219 24.300781 15.96875 25.003906 Z M 15.96875 25.003906 "/>
<use xlink:href="#surface8" mask="url(#mask1)"/>
<path style=" stroke:none;fill-rule:nonzero;fill:rgb(0.784314%,53.333333%,81.960784%);fill-opacity:1;" d="M 4.84375 14.214844 C 4.613281 14.410156 4.695312 14.761719 4.976562 14.804688 C 5.757812 14.914062 7.320312 14.839844 8.300781 15.820312 C 9.253906 16.777344 9.453125 18.132812 9.453125 18.132812 L 12.28125 12.148438 C 12.28125 12.148438 10.785156 11.445312 8.609375 12.011719 C 7.109375 12.402344 5.621094 13.542969 4.84375 14.214844 Z M 4.84375 14.214844 "/>
<use xlink:href="#surface11" mask="url(#mask2)"/>
<use xlink:href="#surface14" mask="url(#mask3)"/>
<path style=" stroke:none;fill-rule:nonzero;fill:url(#radial0);" d="M 19.703125 4.332031 C 20.652344 4.769531 21.933594 5.519531 23.152344 6.742188 C 23.585938 7.171875 23.953125 7.613281 24.273438 8.042969 C 24.886719 8.875 25.308594 9.671875 25.585938 10.292969 C 24.96875 11.910156 23.808594 13.796875 22.671875 14.933594 C 18.027344 19.574219 12.898438 22.226562 10.246094 20.347656 C 10.09375 20.238281 9.941406 20.136719 9.800781 20.011719 C 7.527344 17.96875 10.132812 12.109375 14.867188 7.375 C 16.054688 6.1875 18.035156 4.972656 19.703125 4.332031 Z M 19.703125 4.332031 "/>
<path style=" stroke:none;fill-rule:nonzero;fill:rgb(27.058824%,35.294118%,39.215686%);fill-opacity:1;" d="M 19.941406 9.582031 C 19.128906 8.769531 17.808594 8.769531 16.992188 9.582031 C 16.179688 10.398438 16.179688 11.71875 16.992188 12.53125 C 17.808594 13.347656 19.128906 13.347656 19.941406 12.53125 C 20.757812 11.71875 20.757812 10.398438 19.941406 9.582031 Z M 19.941406 9.582031 "/>
<use xlink:href="#surface17" mask="url(#mask4)"/>
<path style=" stroke:none;fill-rule:nonzero;fill:rgb(27.058824%,35.294118%,39.215686%);fill-opacity:1;" d="M 15.234375 14.558594 C 14.644531 13.96875 13.6875 13.96875 13.097656 14.558594 C 12.511719 15.148438 12.511719 16.105469 13.097656 16.695312 C 13.6875 17.28125 14.644531 17.28125 15.234375 16.695312 C 15.824219 16.105469 15.824219 15.148438 15.234375 14.558594 Z M 15.234375 14.558594 "/>
<path style=" stroke:none;fill-rule:nonzero;fill:rgb(89.803922%,22.352941%,20.784314%);fill-opacity:1;" d="M 19.703125 4.332031 C 19.269531 6.472656 23.046875 10.664062 25.585938 10.292969 C 26.375 8.25 26.699219 6.863281 26.914062 4.480469 C 27.027344 3.273438 26.671875 2.929688 25.554688 3.0625 C 22.589844 3.40625 21.417969 3.632812 19.703125 4.332031 Z M 19.703125 4.332031 "/>
<use xlink:href="#surface20" mask="url(#mask5)"/>
<use xlink:href="#surface23" mask="url(#mask6)"/>
</g>
</svg>
